<svg xmlns="http://www.w3.org/2000/svg" viewBox="0 0 320 168" width="960" height="504">
  <defs>
    <radialGradient id="scan" cx="0%" cy="0%" r="100%">
      <stop offset="0" stop-color="#1f8ef1" stop-opacity="0.4"/><stop offset="1" stop-color="#1f8ef1" stop-opacity="0"/>
    </radialGradient>
    <radialGradient id="flood" cx="50%" cy="0%" r="80%">
      <stop offset="0" stop-color="#ffe9a8" stop-opacity="0.85"/><stop offset="1" stop-color="#ffe9a8" stop-opacity="0"/>
    </radialGradient>
  </defs>
  <rect width="320" height="168" fill="#0c1f33"/>
  <rect y="142" width="320" height="26" fill="#0b2138"/>
  <line x1="0" y1="142" x2="320" y2="142" stroke="#1f8ef1" stroke-opacity="0.2"/>
  <!-- 2-storey home, windows lit -->
  <rect x="212" y="72" width="92" height="70" fill="#13314f" stroke="#1f8ef1" stroke-opacity="0.3"/>
  <polygon points="206,72 310,72 296,50 220,50" fill="#0f273f" stroke="#1f8ef1" stroke-opacity="0.25"/>
  <line x1="212" y1="106" x2="304" y2="106" stroke="#1f8ef1" stroke-opacity="0.2"/>
  <rect x="224" y="82" width="16" height="16" fill="#ffd76a"/>
  <rect x="250" y="82" width="16" height="16" fill="#ffd76a"/>
  <rect x="276" y="82" width="16" height="16" fill="#ffd76a"/>
  <rect x="224" y="114" width="18" height="18" fill="#ffd76a"/>
  <rect x="270" y="112" width="22" height="30" fill="#0a1c2e" stroke="#1f8ef1" stroke-opacity="0.3"/>
  <!-- pole: camera + flood + speaker -->
  <rect x="44" y="44" width="4" height="98" fill="#274a68"/>
  <rect x="34" y="34" width="24" height="12" rx="3" fill="#1b3a59" stroke="#1f8ef1" stroke-opacity="0.5"/>
  <circle cx="58" cy="40" r="3.5" fill="#0a1a2c" stroke="#1f8ef1"/>
  <polygon points="58,41 160,142 30,142" fill="url(#scan)"/>
  <rect x="34" y="52" width="22" height="9" rx="2" fill="#243f5b" stroke="#ffe9a8" stroke-opacity="0.5"/>
  <polygon points="45,61 150,142 -30,142" fill="url(#flood)"/>
  <rect x="36" y="66" width="18" height="13" rx="2" fill="#1b3a59" stroke="#1f8ef1" stroke-opacity="0.5"/>
  <circle cx="45" cy="72.5" r="3.5" fill="#0a1a2c" stroke="#1f8ef1"/>
  <g stroke="#22c55e" fill="none" stroke-width="1.6">
    <path d="M56 72 q9 0 14 0"/><path d="M56 66 q15 5 20 0"/><path d="M56 79 q15 -5 20 0"/>
  </g>
  <!-- intruder + detection box -->
  <circle cx="136" cy="104" r="9" fill="#0c1f33" stroke="#9fb6cc"/>
  <rect x="128" y="113" width="16" height="26" rx="4" fill="#13314f" stroke="#9fb6cc"/>
  <line x1="130" y1="139" x2="126" y2="150" stroke="#9fb6cc" stroke-width="3" stroke-linecap="round"/>
  <line x1="142" y1="139" x2="146" y2="150" stroke="#9fb6cc" stroke-width="3" stroke-linecap="round"/>
  <rect x="118" y="94" width="36" height="56" fill="none" stroke="#ff4d4d" stroke-width="1.6" stroke-dasharray="4 3"/>
  <!-- alert toast -->
  <rect x="196" y="8" width="116" height="24" rx="6" fill="#0a1a2c" stroke="#ff4d4d" stroke-opacity="0.7"/>
  <circle cx="210" cy="20" r="6.5" fill="#ff4d4d"/>
  <text x="210" y="23" font-family="Arial" font-size="9" font-weight="700" fill="#fff" text-anchor="middle">!</text>
  <text x="222" y="23" font-family="Arial" font-size="8.5" font-weight="700" fill="#fff">INTRUDER ALERT</text>
</svg>
